<mxfile host="app.diagrams.net" modified="2023-08-05T17:12:46.086Z" agent="Mozilla/5.0 (Windows NT 10.0; Win64; x64) AppleWebKit/537.36 (KHTML, like Gecko) Chrome/115.0.0.0 Safari/537.36" etag="hG2anZH9kViKw0IG4Qnw" version="21.6.6" type="github">
  <diagram name="Página-1" id="Hm52znyg06sWDGTeGIsB">
    <mxGraphModel dx="880" dy="1607" grid="1" gridSize="10" guides="1" tooltips="1" connect="1" arrows="1" fold="1" page="1" pageScale="1" pageWidth="827" pageHeight="1169" math="0" shadow="0">
      <root>
        <mxCell id="0" />
        <mxCell id="1" parent="0" />
        <mxCell id="Jsr82G0MuCSxNstyi9pD-1" value="" style="image;aspect=fixed;html=1;points=[];align=center;fontSize=12;image=img/lib/azure2/databases/SQL_Database.svg;" vertex="1" parent="1">
          <mxGeometry x="730" y="256" width="48" height="64" as="geometry" />
        </mxCell>
        <mxCell id="Jsr82G0MuCSxNstyi9pD-3" value="" style="image;aspect=fixed;html=1;points=[];align=center;fontSize=12;image=img/lib/azure2/management_governance/My_Customers.svg;" vertex="1" parent="1">
          <mxGeometry x="71" y="210" width="69" height="56.00000000000001" as="geometry" />
        </mxCell>
        <mxCell id="Jsr82G0MuCSxNstyi9pD-4" value="" style="image;aspect=fixed;html=1;points=[];align=center;fontSize=12;image=img/lib/azure2/other/Web_Jobs.svg;" vertex="1" parent="1">
          <mxGeometry x="511" y="310" width="66" height="68" as="geometry" />
        </mxCell>
        <mxCell id="Jsr82G0MuCSxNstyi9pD-6" value="" style="sketch=0;pointerEvents=1;shadow=0;dashed=0;html=1;strokeColor=none;fillColor=#505050;labelPosition=center;verticalLabelPosition=bottom;verticalAlign=top;outlineConnect=0;align=center;shape=mxgraph.office.devices.mac_client;" vertex="1" parent="1">
          <mxGeometry x="170" y="218" width="58" height="48" as="geometry" />
        </mxCell>
        <mxCell id="Jsr82G0MuCSxNstyi9pD-7" value="" style="sketch=0;pointerEvents=1;shadow=0;dashed=0;html=1;strokeColor=none;fillColor=#505050;labelPosition=center;verticalLabelPosition=bottom;verticalAlign=top;outlineConnect=0;align=center;shape=mxgraph.office.services.web_services;" vertex="1" parent="1">
          <mxGeometry x="328" y="60" width="60" height="56" as="geometry" />
        </mxCell>
        <mxCell id="Jsr82G0MuCSxNstyi9pD-8" value="" style="image;aspect=fixed;html=1;points=[];align=center;fontSize=12;image=img/lib/azure2/general/Gear.svg;" vertex="1" parent="1">
          <mxGeometry x="511" y="192" width="64" height="64" as="geometry" />
        </mxCell>
        <mxCell id="Jsr82G0MuCSxNstyi9pD-12" value="F2x.FullStack Assesment.Api" style="text;html=1;align=center;verticalAlign=middle;resizable=0;points=[];autosize=1;strokeColor=none;fillColor=none;fontSize=11;" vertex="1" parent="1">
          <mxGeometry x="458" y="388" width="170" height="30" as="geometry" />
        </mxCell>
        <mxCell id="Jsr82G0MuCSxNstyi9pD-13" value="Timer Worker &lt;br&gt;F2x.Fullstack.Api" style="text;html=1;align=center;verticalAlign=middle;resizable=0;points=[];autosize=1;strokeColor=none;fillColor=none;" vertex="1" parent="1">
          <mxGeometry x="488" y="256" width="110" height="40" as="geometry" />
        </mxCell>
        <mxCell id="Jsr82G0MuCSxNstyi9pD-15" value="" style="edgeStyle=elbowEdgeStyle;elbow=vertical;endArrow=classic;html=1;curved=0;rounded=0;endSize=8;startSize=8;" edge="1" parent="1" target="Jsr82G0MuCSxNstyi9pD-7">
          <mxGeometry width="50" height="50" relative="1" as="geometry">
            <mxPoint x="540" y="190" as="sourcePoint" />
            <mxPoint x="440" y="70" as="targetPoint" />
            <Array as="points">
              <mxPoint x="470" y="88" />
            </Array>
          </mxGeometry>
        </mxCell>
        <mxCell id="Jsr82G0MuCSxNstyi9pD-16" value="Servicio F2x consulta conteo" style="text;html=1;align=center;verticalAlign=middle;resizable=0;points=[];autosize=1;strokeColor=none;fillColor=none;" vertex="1" parent="1">
          <mxGeometry x="268" y="110" width="180" height="30" as="geometry" />
        </mxCell>
        <mxCell id="Jsr82G0MuCSxNstyi9pD-17" value="" style="edgeStyle=elbowEdgeStyle;elbow=vertical;endArrow=classic;html=1;curved=0;rounded=0;endSize=8;startSize=8;exitX=0.625;exitY=-0.047;exitDx=0;exitDy=0;exitPerimeter=0;" edge="1" parent="1">
          <mxGeometry width="50" height="50" relative="1" as="geometry">
            <mxPoint x="561" y="199" as="sourcePoint" />
            <mxPoint x="750" y="250" as="targetPoint" />
            <Array as="points">
              <mxPoint x="660" y="180" />
            </Array>
          </mxGeometry>
        </mxCell>
        <mxCell id="Jsr82G0MuCSxNstyi9pD-18" value="Base de datos persistencia" style="text;html=1;align=center;verticalAlign=middle;resizable=0;points=[];autosize=1;strokeColor=none;fillColor=none;" vertex="1" parent="1">
          <mxGeometry x="669" y="332" width="170" height="30" as="geometry" />
        </mxCell>
        <mxCell id="Jsr82G0MuCSxNstyi9pD-19" value="" style="edgeStyle=elbowEdgeStyle;elbow=vertical;endArrow=classic;html=1;curved=0;rounded=0;endSize=8;startSize=8;" edge="1" parent="1" source="Jsr82G0MuCSxNstyi9pD-4" target="Jsr82G0MuCSxNstyi9pD-1">
          <mxGeometry width="50" height="50" relative="1" as="geometry">
            <mxPoint x="571" y="209" as="sourcePoint" />
            <mxPoint x="720" y="290" as="targetPoint" />
            <Array as="points">
              <mxPoint x="590" y="300" />
              <mxPoint x="630" y="290" />
            </Array>
          </mxGeometry>
        </mxCell>
        <mxCell id="Jsr82G0MuCSxNstyi9pD-20" value="Web App Reportes" style="text;html=1;align=center;verticalAlign=middle;resizable=0;points=[];autosize=1;strokeColor=none;fillColor=none;" vertex="1" parent="1">
          <mxGeometry x="150" y="188" width="120" height="30" as="geometry" />
        </mxCell>
        <mxCell id="Jsr82G0MuCSxNstyi9pD-22" value="" style="edgeStyle=elbowEdgeStyle;elbow=vertical;endArrow=classic;html=1;curved=0;rounded=0;endSize=8;startSize=8;entryX=1.034;entryY=0.667;entryDx=0;entryDy=0;entryPerimeter=0;" edge="1" parent="1" source="Jsr82G0MuCSxNstyi9pD-4">
          <mxGeometry width="50" height="50" relative="1" as="geometry">
            <mxPoint x="507.01" y="403.98" as="sourcePoint" />
            <mxPoint x="208.98199999999997" y="265.996" as="targetPoint" />
            <Array as="points">
              <mxPoint x="359.01" y="325.98" />
              <mxPoint x="281.01" y="325.98" />
            </Array>
          </mxGeometry>
        </mxCell>
        <mxCell id="Jsr82G0MuCSxNstyi9pD-23" value="" style="edgeStyle=elbowEdgeStyle;elbow=vertical;endArrow=classic;html=1;curved=0;rounded=0;endSize=8;startSize=8;" edge="1" parent="1" source="Jsr82G0MuCSxNstyi9pD-6" target="Jsr82G0MuCSxNstyi9pD-4">
          <mxGeometry width="50" height="50" relative="1" as="geometry">
            <mxPoint x="280" y="260" as="sourcePoint" />
            <mxPoint x="458" y="364.028" as="targetPoint" />
            <Array as="points">
              <mxPoint x="360" y="340" />
            </Array>
          </mxGeometry>
        </mxCell>
        <mxCell id="Jsr82G0MuCSxNstyi9pD-24" value="" style="edgeStyle=elbowEdgeStyle;elbow=vertical;endArrow=classic;html=1;curved=0;rounded=0;endSize=8;startSize=8;" edge="1" parent="1" target="Jsr82G0MuCSxNstyi9pD-7">
          <mxGeometry width="50" height="50" relative="1" as="geometry">
            <mxPoint x="190" y="210" as="sourcePoint" />
            <mxPoint x="300.02" y="59.99599999999997" as="targetPoint" />
            <Array as="points">
              <mxPoint x="260" y="90" />
            </Array>
          </mxGeometry>
        </mxCell>
        <mxCell id="Jsr82G0MuCSxNstyi9pD-5" value="" style="image;aspect=fixed;html=1;points=[];align=center;fontSize=12;image=img/lib/azure2/security/Conditional_Access.svg;" vertex="1" parent="1">
          <mxGeometry x="170" y="54" width="56.00000000000001" height="68" as="geometry" />
        </mxCell>
        <mxCell id="Jsr82G0MuCSxNstyi9pD-25" value="ARQUITECTURA&amp;nbsp;&lt;br&gt;SOLUCION CONSULTA DE REPORTES CONTEO VEHÍCULOS" style="whiteSpace=wrap;html=1;" vertex="1" parent="1">
          <mxGeometry x="169" y="-30" width="490" height="60" as="geometry" />
        </mxCell>
        <mxCell id="Jsr82G0MuCSxNstyi9pD-26" value="" style="edgeStyle=elbowEdgeStyle;elbow=vertical;endArrow=classic;html=1;curved=0;rounded=0;endSize=8;startSize=8;exitX=0.182;exitY=0;exitDx=0;exitDy=0;exitPerimeter=0;" edge="1" parent="1" source="Jsr82G0MuCSxNstyi9pD-4" target="Jsr82G0MuCSxNstyi9pD-8">
          <mxGeometry width="50" height="50" relative="1" as="geometry">
            <mxPoint x="488" y="327" as="sourcePoint" />
            <mxPoint x="336" y="225" as="targetPoint" />
            <Array as="points">
              <mxPoint x="418" y="225" />
            </Array>
          </mxGeometry>
        </mxCell>
      </root>
    </mxGraphModel>
  </diagram>
</mxfile>
